<svg xmlns="http://www.w3.org/2000/svg" viewBox="0 0 128 128" id="economy" fill="rgb(255, 155, 41)">
  <path d="M87.00628,48A24,24,0,1,0,63.00454,24,24.02805,24.02805,0,0,0,87.00628,48Zm0-44A20,20,0,1,1,67.00483,24,20.02332,20.02332,0,0,1,87.00628,4Z"></path>
  <path d="M89.00642 31.3335H85.00613c-1.22079 0-2.00014-.6582-2.00014-1.11133a2.00014 2.00014 0 0 0-4.00029 0c0 2.81836 2.6916 5.11133 6.00043 5.11133V38a2.00014 2.00014 0 0 0 4.00029 0V35.3335c3.30883 0 6.00043-2.293 6.00043-5.11133V27.11084c0-2.81836-2.6916-5.11084-6.00043-5.11084H85.00613c-1.22079 0-2.00014-.6582-2.00014-1.11133V17.77783c0-.45312.77935-1.11133 2.00014-1.11133h4.00029c1.22079 0 2.00014.6582 2.00014 1.11133a2.00014 2.00014 0 0 0 4.00029 0c0-2.81836-2.6916-5.11133-6.00043-5.11133V10a2.00014 2.00014 0 0 0-4.00029 0v2.6665c-3.30883 0-6.00043 2.293-6.00043 5.11133v3.11084C79.0057 23.707 81.6973 26 85.00613 26h4.00029c1.20224 0 2.00014.66846 2.00014 1.11084v3.11133C91.00656 30.67529 90.22721 31.3335 89.00642 31.3335zM70.91131 100.146a2 2 0 0 0-1.59382 2.33681 2.02693 2.02693 0 0 0 2.33612 1.59384c2.259-.42725 4.178-3.09033 4.71225-3.89648.78424-1.18359 2.47967-4.15967 1.28623-6.2334A2 2 0 0 0 74.05681 95.675C74.47254 96.73688 71.9606 99.94726 70.91131 100.146zM61.04023 71.355a7.15422 7.15422 0 0 0-1.81037-5.69391c-1.70978-1.76855-4.30231-2.37537-7.00069-2.54565zM72.18512 73.60435a4.33015 4.33015 0 0 1 3.01562 1.35317c.93922 1.29645 2.36339 1.12036 3.75857.71246l4.89855-5.02521a13.49342 13.49342 0 0 0-5.20863.92944c-.2676.08936-.59086.19678-.86334.27832a8.58007 8.58007 0 0 0-5.37832-2.20508 4.84686 4.84686 0 0 0-4.97887 5.92236 7.378 7.378 0 0 0 .65044 1.61084c.07422.15186.17286.3501.26076.541a3.39432 3.39432 0 0 1-.47281.01746L71.136 80.796A3.58264 3.58264 0 0 0 72.2443 79.534a3.8343 3.8343 0 0 0-.16679-3.2512C71.76148 75.52122 70.58309 73.77142 72.18512 73.60435zM26.48519 80.34479l10.42727-10.6756q-.42621.08231-.85516.19165A13.39255 13.39255 0 0 0 26.48519 80.34479zM45.77772 91.43311C43.133 89.041 38.99793 89.61133 38.0799 89.77393a6.76251 6.76251 0 0 1-3.267-.78063c-.23458-.10476-2.63488 2.70547-2.9658 3.03182a13.23472 13.23472 0 0 0 6.41008 1.74221c1.554-.0943 3.55054-.54 4.84167.637a3.1137 3.1137 0 0 1 .66606 2.69922 6.0757 6.0757 0 0 0 .87815 3.46955c1.15932 2.26793.579 4.954 1.09464 7.37322a13.31148 13.31148 0 0 0 3.19353 6.57416c2.22682 2.31989 5.50695 1.63955 7.857-.0751a24.352 24.352 0 0 0 5.4472-5.1109 12.8396 12.8396 0 0 0 2.29169-7.03366 14.61544 14.61544 0 0 1 .6143-3.72314 14.10313 14.10313 0 0 1 2.33025-3.68311c.16212-.20813.32638-.423.49021-.63666L65.02563 91.512c-.22743.30261-.464.60791-.70946.92255a17.33325 17.33325 0 0 0-2.93869 4.7881c-.88325 2.45175-.592 5.04415-1.18422 7.54146-.655 2.76219-3.60629 4.878-5.76158 6.44925-.84088.61279-1.97573 1.20117-2.61445.53809a9.45264 9.45264 0 0 1-2.16714-4.63814c-.48551-2.27262-.06334-4.6194-.7882-6.86689-.25481-.79005-1.19974-1.90542-1.11624-2.7518C48.065 94.24512 46.852 92.40479 45.77772 91.43311z"></path>
  <path d="M7.57336 99.70715A40.74284 40.74284 0 0 1 4.00029 83a41.15673 41.15673 0 0 1 .33163-5.12372c1.491.12744 4.6857.60547 4.84355 2.36493a32.3108 32.3108 0 0 0 .082 6.1167c.35842 3.12939 2.52753 4.98828 4.44075 6.62793.0835.07153.15767.13715.23818.20667l2.80068-2.86737c-.14546-.12585-.29165-.25342-.43515-.3764-1.55089-1.3291-2.89083-2.47656-3.06956-4.04443a28.46309 28.46309 0 0 1-.05957-5.47852 1.90849 1.90849 0 0 0 .00586-.22412c-.111-3.50714-3.13255-5.80231-8.15226-6.28229A40.61112 40.61112 0 0 1 6.16335 69.8877a3.99817 3.99817 0 0 0 1.052.18506c.05078.00146.10059.00244.15138.00244 2.52455 0 4.77175-2.289 6.45559-4.29839 2.92118-3.48577 8.43816-3.31873 10.08467-8.09663a10.33654 10.33654 0 0 0 .13282-5.18164c-.03614-.21484-.07032-.49219-.10938-.80322a16.44964 16.44964 0 0 0-.68242-3.424A40.66841 40.66841 0 0 1 39.4109 42.3944c.02583.79035.2941 2.54265-.41206 3.12567-1.14538.94548-2.66566 1.22668-3.9877 1.83068a12.8637 12.8637 0 0 0-3.81456 2.61214c-1.61828 1.65576-1.47471 3.085-1.06941 3.99218a2.00166 2.00166 0 0 0 1.82741 1.18408 1.9711 1.9711 0 0 0 1.92416-1.51825c.51295-2.49071 3.87347-3.2258 5.85811-4.05427 2.99242-1.24916 3.82483-4.52593 3.66368-7.526C43.933 42.02008 44.46579 42 45.00325 42A40.938 40.938 0 0 1 54.432 43.10144a6.97843 6.97843 0 0 0-1.21725 5.91223c.01465.05859.03125.1167.05078.17383a4.69523 4.69523 0 0 1 .23049 1.94336c-.02246.002-.04786.00342-.07813.00391-1.76282-.13867-9.45283-.44385-10.07495 4.58838a2.80514 2.80514 0 0 0-.03223.2998 4.627 4.627 0 0 1-.59086 2.4707 5.58627 5.58627 0 0 1-.63188.3584 4.98916 4.98916 0 0 0-2.11148 1.68262c-.42874.69385-1.73352 2.80566-.63286 4.6958a3.19989 3.19989 0 0 0 .93641.99091L43.30049 63.129c-.06238-.00677-.13117-.012-.188-.02008.05176-.103.1172-.22314.20021-.36182.13673-.09424.42191-.24316.62016-.3457a5.63888 5.63888 0 0 0 1.76185-1.23926 8.50162 8.50162 0 0 0 1.61242-4.94482c.084-.67676 2.94162-1.32666 5.86175-1.08936.0459.00391.0918.00586.13868.00684a4.04644 4.04644 0 0 0 3.39868-1.562c1.40537-1.93555.63188-4.791.37893-5.57373a3.56319 3.56319 0 0 1 1.65954-3.6214 41.19541 41.19541 0 0 1 25.29266 26.083l3.12138-3.20209A44.99672 44.99672 0 1 0 4.58529 102.76636zM19.75121 50.73428c.29054 1.67317.946 3.977.37329 5.64316-.34573 1.00586-1.17 1.75586-2.7561 2.5093-2.411 1.14781-4.86089 2.22982-6.61274 4.32127a9.90116 9.90116 0 0 1-3.04441 2.78033A41.22516 41.22516 0 0 1 19.75121 50.73428zM85.90463 85.7373a40.91866 40.91866 0 0 1-35.18442 37.85751 5.861 5.861 0 0 0-.47635-1.10263 14.52525 14.52525 0 0 0-9.60128-6.627c-6.58257-1.17682-12.82716 2.57428-14.36474 3.58826a41.217 41.217 0 0 1-9.375-6.64807 4.64881 4.64881 0 0 0 .75665-.63647c1.81947-1.92041 1.61535-4.85205 1.33213-6.4292a3.29073 3.29073 0 0 1-.04181-.506l-7.51586 7.69476A44.97774 44.97774 0 0 0 90.00649 83c0-.48065-.02136-.95624-.03638-1.43329zM45.00325 124a40.73259 40.73259 0 0 1-14.1497-2.53522 15.43294 15.43294 0 0 1 9.08488-1.662 10.34718 10.34718 0 0 1 6.4304 4.16406C45.91457 123.98175 45.4611 124 45.00325 124z"></path>
  <path d="M127.93639,35.53089a2.02074,2.02074,0,0,0-2.40366-1.4679c-.01367.00336-.02765.00171-.04126.00537l-12.00087,3.21533a1.99979,1.99979,0,1,0,1.03523,3.86328l4.97033-1.33136L72.7445,87.77637,49.12561,65.68994a2.00125,2.00125,0,0,0-2.79708.06348L.56938,112.60254a2.00019,2.00019,0,0,0,.03319,2.82811,2.03028,2.03028,0,0,0,2.82835-.03319L47.82279,69.94824,71.44265,92.03613a2.00042,2.00042,0,0,0,2.799-.06494l47.85276-49.0896-1.23318,4.60083a1.99992,1.99992,0,0,0,3.86356,1.03516l3.21605-12c.00525-.01953.00311-.03948.00775-.05907A1.90548,1.90548,0,0,0,127.93639,35.53089Z"></path>
</svg>