<svg xmlns="http://www.w3.org/2000/svg" viewBox="0 0 64 64" id="global-shipping" fill="rgb(255, 155, 41)">
  <path d="M32 1c-3.6 0-7.1.6-10.5 1.8-.5.2-.8.8-.6 1.3.2.5.8.8 1.3.6C25.3 3.6 28.6 3 32 3c2.2 0 4.4.3 6.5.7l-.9 2.7c-.3.9-.2 1.9.1 2.6l.7 1.5c.2.4.8.8 1.3.5.5-.3.7-.8.5-1.3l-.7-1.5c-.2-.3-.2-.7 0-1.1l1-2.9c9.6 3 17.2 10.9 19.6 20.8h-2.6c-.6 0-1.1-.3-1.3-.8l-.6-1.3c-.6-1.2-1.8-2-3.1-2H51c-.5 0-.9-.3-1-.4l-2-2c-1-1-2.5-1.3-4-.7 0 0-2.3 1.1-2.6 1.1h-4.9c-.8 0-1.5-.7-1.5-1.5 0-.6.3-1.1.8-1.3l2.3-1.1c.5-.2.7-.8.5-1.3s-.8-.7-1.3-.5L35 14.3c-1.2.5-2 1.8-2 3.1 0 2 1.5 3.5 3.5 3.5h4.9c.6 0 3.4-1.3 3.4-1.3.4-.2 1.2-.3 1.8.3l2 2c.6.6 1.5 1 2.4 1h1.5c.5 0 1.1.4 1.3.8l.6 1.3c.5 1.2 1.8 2 3.1 2h3.1c.2 1.3.4 2.6.4 4h-3.2c-1.1 0-2-.6-2.5-1 0 0-2.9-2.9-3.3-3.1l-4.5-3c-.9-.6-2-1-3.1-1h-8.2c-1.8 0-3.5.9-4.5 2.5l-2.6 4.1c-.3.5-.2 1.1.3 1.4.5.3 1.1.2 1.4-.3l2.6-4.1c.6-1 1.7-1.6 2.9-1.6h8.2c.7 0 1.4.2 1.9.6l4.5 3c.2.1 3 2.9 3 2.9 1.1 1 2.5 1.6 3.9 1.6H61c-.2 6-2.2 11.6-5.8 16.4-.3.4-.2 1.1.2 1.4.5.4 1.2.1 1.4-.2C60.9 45.2 63 38.8 63 32 63 14.9 49.1 1 32 1zM8 28.7l2.6-3.9c0-.1 1-1 1-1 .9-.8 1.4-2 1.4-3.3 0 0-.4-1.7.8-2.8l1.5-1.5c1.1-1.2 1.5-2.8 1.1-4.3l-.9-3.7c.8-.6 1.7-1.1 2.6-1.6.5-.3.7-.9.4-1.4-.3-.5-.9-.7-1.4-.4C7.2 10.2 1 20.6 1 32c0 5.9 1.7 11.6 4.8 16.6.2.3.5.5.8.5.2 0 .4 0 .5-.2.5-.3.6-.9.3-1.4C4.6 42.9 3 37.5 3 32c0-8.9 4.1-17.1 10.8-22.6l.7 2.9c.2.8-.1 1.8-.6 2.5l-1.5 1.5c-1.9 1.3-1.4 4.2-1.4 4.2 0 .7-.3 1.3-.8 1.8 0 0-1.2 1.3-1.2 1.4l-2.6 4c-.9 1.4-.7 3.8 0 5.3.2.4.7.8 1.3.4.5-.3.7-.8.4-1.3-.4-1-.5-2.7-.1-3.4z"></path>
  <path d="M47.9 39.3c-.8-1.4-2.4-2.3-4-2.3H37v-.9c0-1.7-1.4-3.1-3.1-3.1H12.1C10.4 33 9 34.4 9 36.1v19.7c0 1.7 1.4 3.1 3.1 3.1h1c.5 2.3 2.5 4 4.9 4s4.4-1.7 4.9-4h16.2c.5 2.3 2.5 4 4.9 4 .6 0 1-.4 1-1s-.4-1-1-1c-1.7 0-3-1.3-3-3s1.3-3 3-3 3 1.3 3 3c0 .8-.3 1.6-.9 2.1-.4.4-.4 1 0 1.4.4.4 1 .4 1.4 0 .7-.7 1.2-1.6 1.4-2.5h1.2c1.6 0 2.9-1.3 2.9-2.9 0-.6-.4-1-1-1s-1 .4-1 1c0 .5-.4.9-.9.9h-1.2c-.5-2.3-2.5-4-4.9-4s-4.4 1.7-4.9 4H37V39h2v9c0 .6.4 1 1 1h11v3.2c0 .6.4 1 1 1s1-.4 1-1v-4.4c0-.2-5.1-8.5-5.1-8.5zM18 61c-1.7 0-3-1.3-3-3s1.3-3 3-3 3 1.3 3 3-1.3 3-3 3zm17-12H18c-.6 0-1 .4-1 1s.4 1 1 1h17v6H22.9c-.5-2.3-2.5-4-4.9-4s-4.4 1.7-4.9 4h-1c-.6 0-1.1-.5-1.1-1.1V51h3c.6 0 1-.4 1-1s-.4-1-1-1h-3V36.1c0-.6.5-1.1 1.1-1.1h21.7c.6 0 1.1.5 1.1 1.1V49zm6-2v-8h2.9c.9 0 1.8.5 2.3 1.3l4 6.7H41z"></path>
  <path d="M16 37h-2c-.6 0-1 .4-1 1v2c0 .6.4 1 1 1s1-.4 1-1v-1h1c.6 0 1-.4 1-1s-.4-1-1-1zm10 18h6c.6 0 1-.4 1-1s-.4-1-1-1h-6c-.6 0-1 .4-1 1s.4 1 1 1z"></path>
  <circle cx="44" cy="58" r="1"></circle>
  <circle cx="18" cy="58" r="1"></circle>
</svg>